<svg width="52" height="55" viewBox="0 0 52 55" fill="none" xmlns="http://www.w3.org/2000/svg">
<path d="M41.7783 1H2C1.44771 1 1 1.44772 1 2V53C1 53.5523 1.44772 54 2 54H30.4109M30.4109 54L41.7783 42.7196M30.4109 54V43.7196C30.4109 43.1673 30.8586 42.7196 31.4109 42.7196H41.7783M41.7783 42.7196V27.3209M46.1087 17.652C52.6044 11.2061 51.8826 10.3935 48.2739 7.08784C44.6652 3.78222 43.7631 3.3277 37.8087 9.05743M46.1087 17.652L37.8087 9.05743M46.1087 17.652L42.7032 21.0541M19.0435 44.6892C18.0873 41.2437 16.8494 41.1837 13.6304 41.4662M19.0435 44.6892L10.563 48.0554M19.0435 44.6892L42.7032 21.0541M10.563 36.0946C13.4612 37.4696 13.9152 39.2617 13.6304 41.4662M10.563 36.0946L6.99044 44.6892M10.563 36.0946L34.3805 12.4595M37.8087 9.05743L34.3805 12.4595M13.6304 41.4662L30.4109 25.1723M6.99044 44.6892L5.51786 48.2318C5.1784 49.0484 5.98821 49.8713 6.8102 49.5451L10.563 48.0554M6.99044 44.6892L10.563 48.0554M42.7032 21.0541L38.5418 16.7568M34.3805 12.4595L38.5418 16.7568M38.5418 16.7568L34.3805 21.0541" stroke="#FAEBD7"/>
</svg>
