<svg width="47" height="59" viewBox="0 0 47 59" fill="none" xmlns="http://www.w3.org/2000/svg">
<path d="M4.82353 10.6667H1V5H17.7647M4.82353 10.6667H41M4.82353 10.6667L5.20885 15M8.64706 53.6667H11.8824M8.64706 53.6667V58H38.0588V53.6667M8.64706 53.6667L5.20885 15M38.0588 53.6667H14.8235M38.0588 53.6667L41 10.6667M41 10.6667H46V5H28.6471M13.3529 20.6667V32.6667M13.3529 38V45.6667M5.20885 15H36M17.7647 5V1H28.6471V5M17.7647 5H28.6471M23.3529 30V45.6667M23.3529 20.6667V26M32.4706 20.6667V34.3333M32.4706 38V45.6667" stroke="#FAEBD7"/>
</svg>
